<?xml version="1.0" encoding="UTF-8"?>
<svg id="Layer_1" data-name="Layer 1" xmlns="http://www.w3.org/2000/svg" xmlns:xlink="http://www.w3.org/1999/xlink" viewBox="0 0 346.74 106.62">
  <defs>
    <style>
      .cls-1 {
        fill: #fff;
      }

      .cls-2 {
        fill: #268aa5;
      }

      .cls-3 {
        fill: #f48167;
      }

      .cls-4 {
        fill: url(#linear-gradient);
      }
    </style>
    <linearGradient id="linear-gradient" x1="6.43" y1="24.4" x2="84.87" y2="111.35" gradientUnits="userSpaceOnUse">
      <stop offset="0" stop-color="#fff"/>
      <stop offset=".64" stop-color="#fff"/>
    </linearGradient>
  </defs>
  <g>
    <path class="cls-3" d="M138.06,33.62c0-.38-.74,7.45-.88,10.95-.14,3.5-.21,7.19-.21,11.07,0,2.91.11,9.56.14,12.13s.05,3.69.05,3.35c0,1.77-.64,2.66-1.91,2.66-.73,0-1.23-.25-1.5-.75-.19-.35-.31-.93-.36-1.76-.05-.83-.07-2.2-.07-4.13l-.09-11.81c-1.44.02-3.43.04-5.96.04-4.69,0-8.33-.06-10.92-.18-.13,2.81-.2,5.48-.2,8.01,0,.76,0,1.58.02,2.45.01.87.02,1.36.02,1.45,0,1.21-.13,2.06-.39,2.55-.29.54-.8.8-1.53.8s-1.21-.26-1.5-.77c-.27-.48-.41-1.28-.41-2.41,0-2.32.08-6.46.23-12.42-.81-.39-1.21-.89-1.21-1.5,0-.83.44-1.36,1.32-1.57.19-3.33.83-11.53,1.18-15.77.24-1.51.95-2.27,2.12-2.27s1.75.71,1.75,2.14c0,.12-.46,5.66-.64,7.8-.23,2.66-.42,5.35-.57,8.06,1.33.05,3.43.07,6.28.07,3.63,0,7.11-.1,10.45-.3.09-6.23.87-16.33.99-17.77.14-1.7.8-2.55,1.98-2.55s1.82.8,1.82,2.41Z"/>
    <path class="cls-3" d="M159.42,65.5c0,.57-.17,1.05-.52,1.45-.35.39-.77.59-1.27.59-.94,0-1.73-1.45-2.37-4.34-2.01,2.75-4.45,4.12-7.31,4.12-4.75,0-7.12-3.79-7.12-11.36,0-3.89.26-7.27.77-10.15.31-1.78,1.06-2.68,2.27-2.68.43,0,.8.16,1.12.48s.48.7.48,1.12c0,.38-.17,1.86-.52,4.42-.35,2.57-.52,4.96-.52,7.17,0,5.09,1.4,7.64,4.21,7.64,1.82,0,3.26-.7,4.33-2.11,1.06-1.41,1.6-3.4,1.6-5.97v-1.05c0-3.98.1-6.54.3-7.67.29-1.62.95-2.43,2-2.43s1.5.7,1.5,2.09c0,.25-.05,1.15-.15,2.71-.1,1.56-.15,2.98-.15,4.26,0,3.03.23,5.83.68,8.39.45,2.56.68,3.67.68,3.31Z"/>
    <path class="cls-3" d="M181.93,37.19c0-.07-.07.82-.21,2.68-.15,2.15-.5,7.12-.61,9.54-.13,3.5-.2,7.22-.2,11.17,0,.81,0,1.64.02,2.49.01.85.02,1.3.02,1.35,0,1.77-.56,2.66-1.69,2.66-1.23,0-1.85-1-1.85-3,0-.46.01-.83.04-1.09-2.25,2.21-4.85,3.32-7.81,3.32-2.47,0-4.43-.8-5.87-2.4-1.44-1.6-2.17-3.8-2.17-6.59,0-3.81,1.05-6.88,3.15-9.22,2.1-2.34,4.84-3.51,8.24-3.51,1.58,0,3.21.36,4.9,1.09.08-3.29.41-7.94.55-8.6.26-1.21.92-1.82,1.97-1.82s1.51.65,1.51,1.94ZM177.72,49.15c-1.56-.97-3.12-1.46-4.69-1.46-2.42,0-4.33.84-5.74,2.51-1.4,1.67-2.1,3.94-2.1,6.81,0,1.96.47,3.49,1.42,4.58.94,1.09,2.25,1.63,3.91,1.63,2.09,0,3.68-.7,4.77-2.09.31-.46.61-.93.91-1.41.34-.5.77-.8,1.28-.89,0-3.34.08-6.57.23-9.67Z"/>
    <path class="cls-3" d="M203.93,39.75c0-.07-.07.82-.21,2.68-.15,2.15-.29,4.44-.39,6.87-.13,3.5-.2,7.22-.2,11.17,0,.81,0,1.64.02,2.49.01.85.02,1.3.02,1.35,0,1.77-.56,2.66-1.69,2.66-1.23,0-1.85-1-1.85-3,0-.46.01-.83.04-1.09-2.25,2.21-4.85,3.32-7.81,3.32-2.47,0-4.43-.8-5.87-2.4-1.44-1.6-2.17-3.8-2.17-6.59,0-3.81,1.05-6.88,3.15-9.22,2.1-2.34,4.84-3.51,8.24-3.51,1.58,0,3.21.36,4.9,1.09.08-3.29.2-5.27.34-5.92.26-1.21.92-1.82,1.97-1.82s1.51.65,1.51,1.94ZM199.94,49.03c-1.56-.97-3.12-1.46-4.69-1.46-2.42,0-4.33.84-5.74,2.51-1.4,1.67-2.1,3.94-2.1,6.81,0,1.96.47,3.49,1.42,4.58.94,1.09,2.25,1.63,3.91,1.63,2.09,0,3.68-.7,4.77-2.09.31-.46.61-.93.91-1.41.34-.5.77-.8,1.28-.89,0-3.34.08-6.57.23-9.67Z"/>
    <path class="cls-3" d="M212.35,66.53c0,.81-.05,1.36-.16,1.66-.2.52-.65.78-1.33.78-1.12,0-1.79-.92-1.99-2.75-.34-3.09-.51-7.33-.51-12.7,0-6.01.26-20.78.43-22.16.19-1.51.79-2.27,1.79-2.27,1.18,0,1.78.72,1.78,2.16,0,.36-.12,9.19-.25,11.67-.13,2.48-.32,8.43-.32,10.53,0,1.83.09,4.2.29,7.11.19,2.91.29,4.9.29,5.97Z"/>
    <path class="cls-3" d="M233.35,51.55c0,1.24-.43,2.15-1.28,2.75-.38.26-1.59.6-3.62,1.02-2.7.56-5,.84-6.9.84-.87,0-1.92-.06-3.14-.18,0,4.48,1.71,6.73,5.12,6.73.94,0,1.79-.27,2.55-.8.38-.26,1.06-.9,2.05-1.91.36-.37.73-.55,1.12-.55.5,0,.93.19,1.29.56.36.38.54.84.54,1.38,0,.45-.17.87-.52,1.25-2.05,2.24-4.44,3.35-7.19,3.35-5.69,0-8.53-3.29-8.53-9.87,0-3.39.9-6.32,2.71-8.78,2.06-2.79,4.6-4.19,7.64-4.19,2.37,0,4.32.79,5.85,2.37,1.53,1.58,2.3,3.59,2.3,6.03ZM229.8,51.77c-.07-1.65-.5-2.96-1.29-3.92-.79-.96-1.78-1.45-2.97-1.45-1.55,0-2.91.55-4.09,1.66-1.21,1.12-2.12,2.7-2.71,4.75.84.1,1.74.14,2.69.14,2.31,0,5.1-.39,8.37-1.18Z"/>
    <path class="cls-2" d="M265.51,38.82c0-.38-.07,1.18-.21,4.68-.14,3.5-.21,7.19-.21,11.07,0,2.91.02,5.66.05,8.22s.05,3.69.05,3.35c0,1.77-.64,2.66-1.91,2.66-.73,0-1.23-.25-1.5-.75-.19-.35-.31-.93-.36-1.76-.05-.83-.07-2.2-.07-4.13v-7.9c-1.44.02-3.43.04-5.96.04-4.69,0-8.33-.06-10.92-.18-.13,2.81-.2,5.48-.2,8.01,0,.76,0,1.58.02,2.45.01.87.02,1.36.02,1.45,0,1.21-.13,2.06-.39,2.55-.29.54-.8.8-1.53.8s-1.21-.26-1.5-.77c-.27-.48-.41-1.28-.41-2.41,0-2.32.08-6.46.23-12.42-.81-.39-1.21-.89-1.21-1.5,0-.83.44-1.36,1.32-1.57.19-3.33.46-7.12.8-11.36.24-1.51.95-2.27,2.12-2.27s1.75.71,1.75,2.14c0,.12-.09,1.25-.27,3.39-.23,2.66-.42,5.35-.57,8.06,1.33.05,3.43.07,6.28.07,3.63,0,7.11-.1,10.45-.3.09-6.23.2-10.07.32-11.51.14-1.7.8-2.55,1.98-2.55s1.82.8,1.82,2.41Z"/>
    <path class="cls-2" d="M288.45,54.21c0,3.5-1.02,6.28-3.07,8.36-2.05,2.08-4.78,3.11-8.19,3.11-2.83,0-5.05-.97-6.66-2.9-1.61-1.93-2.41-4.62-2.41-8.05,0-3.62.97-6.42,2.91-8.42,1.9-1.96,4.54-2.94,7.92-2.94,2.83,0,5.12.99,6.87,2.98,1.75,1.99,2.62,4.61,2.62,7.87ZM284.9,54.25c0-2.39-.58-4.26-1.74-5.61-1.16-1.35-2.74-2.03-4.75-2.03-4.48,0-6.73,2.69-6.73,8.08,0,2.49.49,4.4,1.46,5.74.97,1.34,2.37,2.01,4.19,2.01,2.35,0,4.2-.72,5.55-2.16,1.34-1.44,2.02-3.45,2.02-6.03Z"/>
    <path class="cls-2" d="M315.85,53.38c0,9.11-1.08,13.67-3.25,13.67-.83,0-1.25-.52-1.25-1.57,0-.01.2-1.37.61-4.08.4-2.71.61-5.4.61-8.09,0-4.48-1.06-6.73-3.18-6.73-1.86,0-3.08,1.13-3.66,3.39-.44,1.74-.66,5.15-.66,10.24,0,.78.06,1.65.18,2.6.12.94.18,1.5.18,1.67,0,1.18-.56,1.77-1.68,1.77-1.34,0-2.02-2.15-2.02-6.44,0-1.81.07-3.7.21-5.66.14-1.97.2-3.02.2-3.17,0-1.76-.93-2.64-2.78-2.64-1.74,0-3,.78-3.78,2.34-.76,1.51-1.14,3.9-1.14,7.17,0,2.11.06,4.06.18,5.88.12,1.81.18,2.58.18,2.29,0,.45-.16.83-.49,1.12-.33.3-.75.45-1.26.45-1.06,0-1.71-1.01-1.96-3.03-.08-.58-.13-2.09-.13-4.53,0-5.1.42-9.97,1.25-14.61.27-1.52.55-2.53.82-3.03.32-.61.84-.91,1.55-.91,1.12,0,1.68.6,1.68,1.78l-.8,4.03c1.02-1.44,2.49-2.16,4.39-2.16,1.52,0,2.72.63,3.59,1.89,1.51-2.49,3.64-3.73,6.39-3.73,4.02,0,6.03,3.37,6.03,10.1Z"/>
    <path class="cls-2" d="M337.25,51.11c0,1.24-.43,2.15-1.28,2.75-.38.26-1.59.6-3.62,1.02-2.7.56-5,.84-6.9.84-.87,0-1.92-.06-3.14-.18,0,4.48,1.71,6.73,5.12,6.73.94,0,1.79-.27,2.55-.8.38-.26,1.06-.9,2.05-1.91.36-.37.73-.55,1.12-.55.5,0,.93.19,1.29.56.36.38.54.84.54,1.38,0,.45-.17.87-.52,1.25-2.05,2.24-4.44,3.35-7.19,3.35-5.69,0-8.53-3.29-8.53-9.87,0-3.39.9-6.32,2.71-8.78,2.06-2.79,4.6-4.19,7.64-4.19,2.37,0,4.32.79,5.85,2.37,1.53,1.58,2.3,3.59,2.3,6.03ZM333.7,51.32c-.07-1.65-.5-2.96-1.29-3.92s-1.78-1.45-2.97-1.45c-1.55,0-2.91.55-4.08,1.66-1.21,1.12-2.12,2.7-2.71,4.75.84.1,1.74.14,2.69.14,2.31,0,5.1-.39,8.37-1.18Z"/>
  </g>
  <g>
    <g>
      <circle class="cls-2" cx="54.1" cy="55.31" r="42.96"/>
      <circle class="cls-1" cx="33.23" cy="25.96" r="15.23"/>
      <path class="cls-4" d="M78.1,80.24l-8.22-7.64.41,4.68c-1.23.21-8.4,1.74-6.59-3.93.63-1.96,10.79-27.41-2-33.98-14.45-7.43-27.77,14.46-30.38,29.62l6.08-33.05c-1.17.27-2.27.58-3.5.56s-3.7-.23-4.83-.56l-8.46,51.52,12.65-4.17c1.84-.91,2.26-2.32,3.27-5.71,1.54-5.14,9.02-35.4,20.95-29.88,4.1,1.9,2.79,13.53.37,20.82-1.65,4.97-2.97,10.07.21,13.46,3.02,3.22,8.5,2.74,12.82,2l.38,4.37,6.84-8.09Z"/>
      <path class="cls-3" d="M33.23,36.22c-5.65,0-10.25-4.6-10.25-10.25s4.6-10.25,10.25-10.25,10.25,4.6,10.25,10.25-4.6,10.25-10.25,10.25ZM33.23,21.13c-2.67,0-4.83,2.17-4.83,4.83s2.17,4.83,4.83,4.83,4.83-2.17,4.83-4.83-2.17-4.83-4.83-4.83Z"/>
      <path class="cls-1" d="M101.5,68.09l5.49,5.18-6.01,6.36,6.36,6.01-5.18,5.49-6.36-6.01-6.01,6.36-5.49-5.18,6.01-6.36-6.36-6.01,5.18-5.49,6.36,6.01,6.01-6.36M101.35,62.94l-2.5,2.65-3.5,3.71-3.71-3.5-2.65-2.5-2.5,2.65-5.18,5.49-2.5,2.65,2.65,2.5,3.71,3.5-3.5,3.71-2.5,2.65,2.65,2.5,5.49,5.18,2.65,2.5,2.5-2.65,3.5-3.71,3.71,3.5,2.65,2.5,2.5-2.65,5.18-5.49,2.5-2.65-2.65-2.5-3.71-3.5,3.5-3.71,2.5-2.65-2.65-2.5-5.49-5.18-2.65-2.5h0Z"/>
      <polyline class="cls-3" points="101.5 68.09 106.99 73.27 100.99 79.63 107.35 85.64 102.17 91.13 95.8 85.12 89.8 91.48 84.31 86.3 90.31 79.94 83.95 73.93 89.14 68.44 95.5 74.45 101.5 68.09"/>
    </g>
    <g>
      <path class="cls-1" d="M89.13,27.36l-5.35,4.17c1.96,2.63,3.58,5.5,4.82,8.55l6.2-2.65c-1.46-3.58-3.36-6.96-5.67-10.06Z"/>
      <path class="cls-1" d="M71.87,21.04c2.83,1.58,5.45,3.54,7.8,5.81l4.63-4.99c-2.77-2.67-5.86-4.97-9.18-6.84l-3.24,6.02Z"/>
      <path class="cls-1" d="M97.02,44.47l-6.54,1.59c.73,3.2,1.06,6.51.97,9.82l6.71.16c.1-3.9-.28-7.79-1.15-11.56Z"/>
      <path class="cls-1" d="M58.55,8.35l-8.98,3.97,7.88,7.8.33-3.56c2.89.32,5.74.95,8.46,1.92l2.24-6.48c-3.24-1.16-6.62-1.91-10.06-2.28l.13-1.38Z"/>
    </g>
  </g>
</svg>